<?xml version="1.0" encoding="utf-8"?>
<!DOCTYPE svg PUBLIC "-//W3C//DTD SVG 20010904//EN" "http://www.w3.org/TR/2001/REC-SVG-20010904/DTD/svg10.dtd">
<svg version="1.0" xmlns="http://www.w3.org/2000/svg" width="1069px" height="624px" viewBox="0 0 1069 624" preserveAspectRatio="xMidYMid meet">
 <g fill="#221e1f">
  <path d="M588 581.3 c-5.7 -2.9 -7.7 -12.3 -4.2 -19.3 4.8 -9.7 17.4 -6.6 18.9 4.6 1.5 11.4 -6.1 19 -14.7 14.7z"/>
  <path d="M611 582.3 c-3.3 -1.2 -4 -3.6 -4 -14.5 l0 -10.8 3.5 0 3.5 0 0 9.4 c0 5.2 0.4 9.7 0.9 10 1.9 1.2 3 -2.4 3.3 -10.4 l0.3 -8.5 3.5 0 3.5 0 0 12 0 12 -3.2 0.3 c-1.8 0.2 -3.3 -0.1 -3.3 -0.7 0 -0.5 -1.2 -0.4 -2.7 0.5 -3 1.5 -3.1 1.5 -5.3 0.7z"/>
  <path d="M684 582.3 c-5.6 -2.1 -7 -9.6 -2.4 -13.2 1.5 -1.2 3.3 -2.1 4 -2.1 3 0 6.3 -2 5.8 -3.5 -0.8 -2 -4.1 -1.9 -5.2 0.1 -1.2 2.1 -6.2 0.9 -6.2 -1.6 0 -3.8 7 -7 12.4 -5.6 4.6 1.1 5.6 3.1 5.6 11.4 0 4.3 0.4 9.2 0.9 11 1 3.2 0.9 3.2 -2.5 3.2 -1.9 0 -3.4 -0.4 -3.4 -0.9 0 -0.6 -1.6 -0.3 -3.5 0.5 -1.9 0.7 -3.6 1.4 -3.7 1.3 -0.2 0 -1 -0.3 -1.8 -0.6z"/>
  <path d="M720.3 582 c-3.3 -1.3 -4.3 -4.2 -4.3 -11.9 0 -3.8 -0.4 -7.3 -1 -7.6 -0.5 -0.3 -1 -1.7 -1 -3.1 0 -1.3 0.5 -2.4 1 -2.4 0.6 0 1 -1 1 -2.3 0 -1.4 1 -2.9 2.9 -4 4 -2.3 4.1 -2.3 4.1 2.3 0 3.3 0.3 4 2 4 1.6 0 2 0.7 2 3 0 2.4 -0.4 3 -2 3 -1.9 0 -2.1 0.5 -1.8 6.8 0.3 5.7 0.6 6.7 2.1 6.6 1.2 -0.1 1.7 0.6 1.7 2.7 0 1.6 -0.4 2.9 -0.9 2.9 -0.5 0 -1.5 0.2 -2.3 0.4 -0.7 0.3 -2.3 0.1 -3.5 -0.4z"/>
  <path d="M783.3 582.3 c-2.4 -0.5 -6.3 -4.7 -6.3 -6.8 0 -0.7 1.4 -1.5 3.1 -1.7 2.2 -0.4 3.3 0 4 1.4 1.1 2 4.9 2.5 4.9 0.5 0 -0.6 -2 -2.4 -4.5 -3.9 -5.4 -3.3 -7.3 -6.7 -5.9 -10.6 1.3 -3.7 5.2 -5.7 9.7 -4.8 3.8 0.7 7.5 4.6 6.2 6.6 -0.8 1.3 -6.5 1.3 -6.5 0 0 -0.5 -0.7 -1 -1.5 -1 -2.7 0 -1.6 1.9 2.8 4.7 2.3 1.4 4.7 3.3 5.4 4.2 4.3 5.6 -3.1 13 -11.4 11.4z"/>
  <path d="M820.3 582.3 c-5.5 -1.1 -9.3 -8.3 -9.3 -17.8 0 -11 4.5 -17.5 12 -17.5 9.3 0 13 5.2 13 18.2 0 11.5 -2.7 15.8 -10.5 17.1 -1.6 0.2 -4 0.3 -5.2 0z m5.1 -11.9 c1.2 -3.1 0.6 -11.1 -0.9 -12.4 -2.7 -2.3 -4.6 6 -2.5 11.4 1.1 2.9 2.5 3.4 3.4 1z"/>
  <path d="M845 582.3 c-3.3 -1.2 -4 -3.6 -4 -14.5 l0 -10.8 3.5 0 3.5 0 0 9.3 c0 9.8 0.4 11.4 2.7 9.6 0.9 -0.8 1.3 -3.8 1.3 -10 l0 -8.9 3.5 0 3.5 0 0 12.5 0 12.5 -3 0 c-1.6 0 -3 -0.4 -3 -0.9 0 -0.6 -1.2 -0.3 -2.7 0.5 -3 1.5 -3.1 1.5 -5.3 0.7z"/>
  <path d="M951.2 582 c-5.6 -2.3 -7.1 -18.2 -2.2 -23.5 2.5 -2.7 5 -3.1 8.1 -1.5 1.8 1 1.9 0.7 1.9 -4.5 l0 -5.6 3.3 0.3 3.2 0.3 0.3 17.3 0.2 17.2 -3.5 0 c-1.9 0 -3.5 -0.5 -3.5 -1.1 0 -0.5 -1 -0.3 -2.2 0.5 -2.5 1.8 -2.5 1.8 -5.6 0.6z"/>
  <path d="M977.4 582.3 c-1.2 -0.2 -3.2 -1.5 -4.5 -2.9 -2.1 -2.2 -2.4 -3.5 -2.4 -10.1 0 -7.2 0.1 -7.6 3.3 -10.4 7 -6.3 16.3 -1.4 16.6 8.8 l0.1 3.8 -6.8 0.3 c-5.6 0.2 -6.8 0.6 -6.5 1.9 0.2 0.9 1.1 2.1 2.1 2.7 1.4 0.9 2.1 0.7 3.1 -0.6 1.4 -2 7.6 -2.5 7.6 -0.7 0 2.4 -2.4 5.2 -5.5 6.5 -1.9 0.8 -3.8 1.3 -4.2 1.3 -0.4 -0.1 -1.8 -0.4 -2.9 -0.6z"/>
  <path d="M567 575 c0 -6.4 -0.4 -7.9 -5 -17 -2.7 -5.5 -5 -10.2 -5 -10.5 0 -0.3 1.8 -0.5 4 -0.5 3.3 0 4.2 0.4 4.9 2.3 0.5 1.2 1.8 4.2 2.8 6.6 l1.9 4.5 2.6 -6.5 c2.2 -5.4 3 -6.4 5.3 -6.7 5.8 -0.7 5.9 0.1 0.5 10.8 -4.6 9.1 -5 10.6 -5 17 l0 7 -3.5 0 -3.5 0 0 -7z"/>
  <path d="M631 569.5 l0 -12.6 3.8 0.1 c2 0.1 4.6 -0.1 5.7 -0.4 1.1 -0.4 2.6 -0.2 3.3 0.2 1.9 1.3 -0.2 6.2 -2.7 6.2 -2.9 0 -3.3 1.2 -3.7 10.3 l-0.3 8.2 -3.1 0.3 -3 0.3 0 -12.6z"/>
  <path d="M659 564.5 l0 -17.6 9.3 0.3 9.2 0.3 0 3 c0 3 -0.1 3 -5.7 3.3 l-5.8 0.3 0 3.4 c0 3.5 0 3.5 4.5 3.5 4.3 0 4.5 0.1 4.5 3 0 2.9 -0.2 3 -4.5 3 l-4.5 0 0 7.5 0 7.5 -3.5 0 -3.5 0 0 -17.5z"/>
  <path d="M704 569.5 l0 -12.5 3.5 0 3.5 0 0 12.5 0 12.5 -3.5 0 -3.5 0 0 -12.5z"/>
  <path d="M730.2 564.8 l0.3 -17.3 3 0 c2.9 0 3 0.2 3.5 5.2 0.4 4.4 0.8 5.1 2 4.3 2.7 -1.7 5.8 -1.1 7.9 1.6 1.8 2.3 2.1 4.1 2.1 13 l0 10.4 -3.5 0 -3.5 0 0 -9.4 c0 -9.6 -0.8 -11.8 -3.5 -9.6 -1.1 0.9 -1.5 3.6 -1.5 10.1 l0 8.9 -3.5 0 -3.5 0 0.2 -17.2z"/>
  <path d="M766 564.5 l0 -17.5 3.5 0 3.5 0 0 17.5 0 17.5 -3.5 0 -3.5 0 0 -17.5z"/>
  <path d="M864.7 581.3 c-0.4 -0.3 -0.7 -6 -0.7 -12.5 l0 -11.9 4.3 0.2 c2.4 0.2 4.9 -0.1 5.5 -0.5 0.7 -0.4 2.1 -0.5 3.1 -0.1 2.8 0.8 1.3 5.7 -1.9 6.5 -3 0.7 -3.8 3.3 -3.9 12.3 -0.1 6.7 -0.1 6.7 -2.9 6.7 -1.6 0 -3.2 -0.3 -3.5 -0.7z"/>
  <path d="M892.2 564.8 l0.3 -17.3 5.2 -0.3 c7.7 -0.4 13 1.3 14.8 4.8 4.2 8.2 -0.7 17 -9.5 17 -2.9 0 -2.9 0.1 -3.2 6.3 l-0.3 6.2 -3.8 0.3 -3.7 0.3 0.2 -17.3z"/>
  <path d="M918 569.4 l0 -12.6 4 0.3 c2.1 0.2 4.2 0 4.6 -0.4 1.1 -1.1 4.2 -0.8 4.9 0.4 1.2 1.9 -0.4 5.9 -2.5 5.9 -2.9 0 -4 3.1 -4 11.4 l0 7.6 -3.5 0 -3.5 0 0 -12.6z"/>
  <path d="M934.7 581.4 c-0.4 -0.4 -0.7 -6.1 -0.7 -12.6 l0 -11.8 4 0 4.1 0 -0.3 12.3 -0.3 12.2 -3 0.3 c-1.7 0.2 -3.4 0 -3.8 -0.4z"/>
  <path d="M704.2 550.8 c0.3 -2.9 0.6 -3.3 3.3 -3.3 2.7 0 3 0.4 3.3 3.3 0.3 3.1 0.2 3.2 -3.3 3.2 -3.5 0 -3.6 -0.1 -3.3 -3.2z"/>
  <path d="M934.4 552.6 c-1.3 -3.3 0 -5.1 3.6 -5.1 3.2 0 3.5 0.2 3.5 3 0 2.7 -0.4 3 -3.3 3.3 -2.2 0.2 -3.4 -0.2 -3.8 -1.2z"/>
  <path d="M302 493 c-7.4 -1.6 -16.5 -6.7 -21.1 -11.8 -6.6 -7.5 -9.2 -14.1 -9.7 -24.8 -0.9 -19.5 7.3 -34 23.2 -41.5 10.8 -5.1 25.6 -6.1 37.7 -2.6 l4.3 1.2 0 10.8 0.1 10.7 -5.2 0 -5.2 0 -1.3 -4.1 c-2.2 -7.5 -10 -9.9 -18.4 -5.9 -7.7 3.8 -12.4 13.6 -12.4 26.1 0 18.1 7.7 29.8 19.6 29.9 4.4 0 9.6 -3.8 11.9 -8.7 1.9 -4.3 2 -4.3 7.2 -4.3 l5.3 0 0 10 c0 9.2 -0.2 10 -2.2 11.1 -6.7 3.6 -25.2 5.7 -33.8 3.9z"/>
  <path d="M346.5 491.2 c-0.3 -0.3 -0.5 -2.7 -0.5 -5.3 0 -4.4 0.3 -5 3.1 -6.4 2.1 -1.1 3.8 -3.3 5.4 -7 3.3 -7.3 13.6 -37.8 17 -50 l2.7 -10.1 10.9 0.1 11 0 1 4 c6 23.1 16.2 54.2 19.2 58.7 1.3 1.8 3.3 3.7 4.5 4.3 1.9 0.8 2.2 1.8 2.2 6.5 l0 5.5 -19 0 -19 0 0 -5.7 c0 -5 0.3 -5.8 1.9 -5.8 2.8 0 4.3 -2.4 3.9 -6.7 l-0.3 -3.8 -9.9 -0.3 c-11.1 -0.3 -11.6 -0.1 -11.6 6 0 3.2 0.4 3.9 2.5 4.4 2.3 0.6 2.5 1.1 2.5 6.4 l0 5.7 -13.5 0 c-7.4 0 -13.7 -0.3 -14 -0.5z m34.9 -40.9 c-0.9 -3.8 -1 -3.8 -2.2 -0.4 -1 2.8 -0.9 3.1 0.9 3.1 1.6 0 1.8 -0.5 1.3 -2.7z"/>
  <path d="M432 485.8 c0 -4.5 0.3 -5.8 1.5 -5.8 0.8 0 2.4 -0.9 3.5 -2 1.9 -1.9 2 -3.3 2 -26.3 0 -22 -0.2 -24.5 -1.7 -25.9 -1 -0.9 -2.7 -1.8 -3.8 -2 -1.7 -0.3 -2 -1.2 -2.3 -6.1 l-0.3 -5.8 24.9 0.3 24.9 0.3 4.9 3 c6.8 4.3 9.8 9.9 9.8 18.5 0 9.2 -4.7 18.3 -10.6 20.2 -0.6 0.2 0.5 2.5 2.5 5.1 2 2.6 5 7.4 6.8 10.8 1.8 3.3 4.5 7.1 6.1 8.4 2.4 2.1 2.8 3.1 2.8 7.7 l0 5.3 -11.2 0 -11.3 -0.1 -4.5 -9 c-2.5 -4.9 -5.9 -12.2 -7.7 -16.2 -2.4 -5.6 -3.6 -7.2 -5.2 -7.2 -2 0 -2.1 0.6 -2.1 8.8 0 7.3 0.3 9.2 1.8 10.5 1 1 2.6 1.7 3.5 1.7 1.4 0 1.7 1 1.7 5.8 l0 5.7 -18 0 -18 0 0 -5.7z m36.9 -46.4 c2.8 -3.6 2.7 -7.5 -0.4 -10.4 -3.1 -2.9 -4.4 -1.9 -5.2 3.8 -1.1 8.4 1.6 11.7 5.6 6.6z"/>
  <path d="M509.9 491.3 c0 -0.2 -0.1 -2.7 -0.1 -5.5 -0.1 -4.7 0.2 -5.3 2.1 -5.6 4.7 -0.7 5.1 -3 5.1 -28.2 0 -19.7 -0.3 -23.9 -1.6 -25.8 -0.8 -1.2 -2.4 -2.2 -3.5 -2.2 -1.7 0 -1.9 -0.7 -1.9 -6 l0 -6 28.8 0 28.7 0 -0.2 11.2 -0.1 11.3 -4.2 0.3 c-4.9 0.4 -6.6 -0.8 -7.6 -5.1 -1 -4.8 -2.2 -5.7 -7.5 -5.7 -7.7 0 -9 2 -8.7 12.8 l0.3 8.7 3.7 0.3 c3 0.3 4 -0.1 5.4 -2.2 1.3 -2.1 2.4 -2.6 6 -2.6 l4.4 0 0 11 0 11 -3.9 0 c-3.2 0 -4.4 -0.6 -6.4 -3.1 -2 -2.5 -3 -3 -5.8 -2.7 l-3.4 0.3 -0.3 9.2 c-0.4 12.3 0.2 13.3 7.7 13.3 6.5 0 7.7 -0.9 8.7 -5.9 0.8 -4 3.8 -6.1 8.5 -6.1 l3.6 0 0 11.8 0 11.8 -28.9 0 c-15.8 0 -28.8 -0.1 -28.9 -0.3z"/>
  <path d="M577.2 486.1 c0.3 -4.9 0.6 -5.6 2.5 -5.9 4.9 -0.7 5.3 -2.9 5.3 -27.7 0 -24.8 -0.5 -27.4 -5 -28.5 -2.3 -0.5 -2.5 -1.1 -2.8 -6.3 l-0.3 -5.7 29.1 0 29 0 0 11.5 0 11.5 -4.4 0 c-4.8 0 -7.6 -2.4 -7.6 -6.5 0 -3.3 -2 -4.5 -7.5 -4.5 -7.2 0 -8.7 1.8 -9.3 11.5 -0.5 8.7 0.4 10.5 5.3 10.5 2.4 0 3.7 -0.7 4.9 -2.5 1.4 -2.1 2.5 -2.5 6.1 -2.5 l4.5 0 0 11 0 11 -4.5 0 c-3.6 0 -4.7 -0.4 -5.6 -2.2 -1.6 -3 -2.8 -3.8 -6 -3.8 -4.4 0 -5.2 2.1 -4.7 11.4 0.6 10.9 1.3 11.8 9.2 11.4 l6.1 -0.3 1.4 -4.3 c1.6 -5.1 4.7 -7.5 9.2 -7 l3.2 0.3 0.1 11.5 0.1 11.5 -29.3 0.1 -29.3 0 0.3 -5.5z"/>
  <path d="M645 485.8 c0 -5 0.3 -5.8 1.8 -5.8 4.5 0 4.9 -2.3 5.7 -26.3 0.8 -25.5 0.4 -28.4 -4.6 -29.4 -2.8 -0.5 -2.9 -0.8 -2.9 -6.4 l0 -5.9 22.6 0 c24.8 0 28.2 0.5 34 5.3 6.6 5.5 9.1 15.2 6.3 25.2 -1.1 3.8 -6.9 10.7 -9.9 11.7 -1.2 0.4 -0.7 1.4 2.1 4.5 2 2.2 5.1 6.9 7 10.4 1.9 3.5 4.9 7.8 6.7 9.6 2.7 2.7 3.2 4 3.2 8 l0 4.8 -11.5 0 -11.6 0.1 -5.5 -11.6 c-9.8 -20.6 -9.8 -20.5 -11.9 -20.5 -1.7 0 -2 0.8 -2.3 6 -0.5 9.3 0.4 12.5 3.9 13.8 2.7 1.1 2.9 1.5 2.9 6.7 l0 5.5 -18 0 -18 0 0 -5.7z m38.3 -47.6 c1.7 -2.8 1.7 -3.7 0.7 -6.3 -1.5 -3.6 -4.2 -5.3 -5.8 -3.7 -1.3 1.3 -1.7 12 -0.5 13.2 1.4 1.4 3.7 0 5.6 -3.2z"/>
  <path d="M752.4 491.1 c-0.2 -0.2 -0.4 -2.6 -0.4 -5.3 0 -4.5 0.2 -5 2.9 -5.9 4.5 -1.6 5.1 -4.8 5.1 -28.8 0 -23.1 -0.6 -26.3 -4.8 -26.9 -2 -0.3 -2.2 -0.9 -2.2 -6 l0 -5.7 18 0 18 0 0 5.3 c0 4.8 -0.2 5.3 -2.7 6.3 -1.5 0.6 -3.1 1.6 -3.5 2.2 -0.4 0.7 -0.8 12.5 -0.8 26.4 0 28.6 -0.4 27.3 8.4 27.3 5.2 0 7.1 -1.5 8 -6.5 0.8 -4 3.8 -5.8 9 -5.3 2.7 0.3 3.1 0.7 3 3.1 0 1.5 -0.1 6.6 -0.2 11.5 l-0.2 8.7 -28.6 0 c-15.7 0 -28.8 -0.2 -29 -0.4z"/>
  <path d="M818 485.8 c0 -5.1 0.2 -5.8 1.9 -5.8 1.1 0 2.7 -1 3.5 -2.2 1.4 -1.9 1.6 -6.2 1.6 -26.9 0 -25.8 -0.1 -26.2 -4.5 -27.1 -1.7 -0.3 -2 -1.2 -2.3 -6.1 l-0.3 -5.7 18.6 0 18.6 0 -0.3 5.7 c-0.3 5.2 -0.5 5.8 -2.8 6.3 -4.5 1.1 -5 3.8 -5 28 0 24 0.6 27.2 4.8 27.8 2 0.3 2.2 0.9 2.2 6 l0 5.7 -18 0 -18 0 0 -5.7z"/>
  <path d="M861 486.1 c0 -5.6 0.1 -5.9 2.9 -6.4 4.5 -0.9 5.1 -4.3 5.1 -28.6 0 -23.7 -0.5 -26.4 -5.3 -26.9 -2.6 -0.3 -2.7 -0.5 -2.7 -6.3 l0 -5.9 28.9 0 29 0 -0.2 11.5 -0.2 11.5 -4.2 0 c-4.4 0 -7.3 -2.5 -7.3 -6.2 0 -3 -2.9 -4.8 -7.9 -4.8 -7.4 0 -8.4 1.3 -8.9 11.4 -0.5 9.7 0.3 11.6 4.9 11.6 2 0 3.5 -0.9 5.1 -3 1.8 -2.5 2.9 -3 6.5 -3 l4.3 0 0 11.5 0 11.5 -4 0 c-3.2 0 -4.3 -0.5 -6.2 -3 -1.7 -2.4 -2.9 -3 -5.9 -3 -4.3 0 -4.9 1 -4.9 8.5 0 8.7 0.9 11.7 4.2 12.9 2.6 1 2.8 1.4 2.8 6.8 l0 5.7 -18 0 -18 0 0 -5.8z"/>
  <path d="M937 485.9 c0 -5.2 0.2 -5.7 2.5 -6.3 1.5 -0.4 3 -1.8 3.5 -3.2 1.1 -2.7 1.4 -48.2 0.4 -50.8 -0.8 -2.2 -4.7 -2 -6.8 0.3 -0.9 1 -2 3.5 -2.3 5.5 l-0.6 3.7 -5.4 -0.3 -5.5 -0.3 0 -11 0 -11 32.6 -0.3 32.6 -0.2 0 11.5 0 11.5 -6 0 c-5.9 0 -6 0 -6 -2.9 0 -3.4 -3.4 -8.1 -5.9 -8.1 -3.9 0 -4.1 1.6 -4.1 27 0 20.6 0.3 24.9 1.6 26.8 0.8 1.2 2.4 2.2 3.5 2.2 1.7 0 1.9 0.7 1.9 5.8 l0 5.7 -18 0 -18 0 0 -5.6z"/>
  <path d="M1004.9 409 c-10.6 -1.8 -20.3 -7.8 -26.6 -16.4 -15.5 -21 -8.2 -49.6 15.6 -61.4 7.1 -3.5 8 -3.7 17.5 -3.7 9.3 0 10.7 0.3 16.8 3.2 24.8 11.7 32.2 41.2 15.9 62.7 -8.6 11.5 -25.1 18 -39.2 15.6z m12.9 -8.4 c10.8 -2.9 19.2 -10 24.1 -20.5 5.3 -11.5 2.5 -24.5 -7.5 -34.5 -10.3 -10.3 -23.9 -13 -35.8 -7.2 -17.2 8.4 -25 27.6 -17.3 42.4 5.3 10.1 13.7 17.1 23.6 19.8 6 1.6 6.6 1.6 12.9 0z"/>
  <path d="M995 367.9 l0 -22 15.6 0.3 15.6 0.3 2.9 3.3 c2.5 2.8 2.9 4 2.9 9.3 0 5.7 -1.8 11.3 -3.9 12.1 -0.6 0.1 0.8 3.1 2.9 6.5 2.4 3.7 4 7.4 4 9.3 l0 3 -7.7 0 -7.8 0 -3.8 -5.9 c-2 -3.2 -4.6 -6.6 -5.7 -7.6 -2 -1.8 -2 -1.7 -2 5.8 l0 7.7 -6.5 0 -6.5 0 0 -22.1z m21 -6.9 c1.1 -0.7 0.9 -1.1 -1.3 -1.9 -3.5 -1.4 -5.4 -1.4 -6.2 -0.1 -1.6 2.6 4.1 4.2 7.5 2z"/>
 </g>
 <g fill="#ed1c24">
  <path d="M872 526.2 c0 -5.5 0.3 -11.4 0.7 -13.2 l0.6 -3.3 18.6 0.6 c10.2 0.3 37.8 1.2 61.4 1.9 23.5 0.6 42.7 1.6 42.7 2 0 0.4 -4.6 0.9 -10.2 0.9 -5.7 0.1 -17.7 0.5 -26.8 0.9 l-16.5 0.6 12.5 0.3 c6.9 0.2 16.3 0.6 21 1 l8.5 0.6 -10.9 0.8 c-6 0.4 -15.9 0.8 -22 0.9 -10.7 0.2 -10.6 0.2 4.9 0.8 8.8 0.4 20.2 0.8 25.3 0.9 13.7 0.2 11.6 2.1 -2.5 2.2 -6.5 0.1 -16.7 0.5 -22.8 0.9 -10.6 0.6 -10.3 0.7 8 0.9 22.5 0.3 29.7 1.9 9.5 2.1 -21.3 0.2 -25.8 1.7 -6 2 14.4 0.2 32.1 1.4 26.5 1.9 -1.1 0 -22 0.8 -46.5 1.6 -24.5 0.8 -51.6 1.7 -60.2 2.1 l-15.8 0.6 0 -10z"/>
  <path d="M763.2 303.5 c-4.5 -4.7 -8.9 -8.5 -9.7 -8.5 -1.8 0 -1.8 0.4 -0.3 4.6 0.6 1.7 0.8 3.9 0.4 4.9 -0.6 1.7 -0.7 1.7 -2.6 0 -1.1 -1 -2.7 -3.8 -3.6 -6.4 -2.9 -7.8 -4.5 -8.7 -11.2 -6.4 l-4.2 1.4 -5.4 -4.5 c-3.4 -2.7 -8.6 -5.6 -14 -7.6 -9.3 -3.5 -13.2 -6.9 -14.3 -12.2 -0.4 -2.2 -0.9 -2.7 -2.2 -2.2 -0.9 0.5 -3.6 0.8 -6.1 0.8 -3.7 0.1 -4.6 -0.3 -5.7 -2.4 -0.7 -1.4 -1.3 -4.8 -1.3 -7.7 l0 -5.1 -3.6 1 c-5.9 1.6 -11.4 -2.1 -11.4 -7.5 0 -0.7 -2.5 -4 -5.5 -7.5 -10 -11.4 -10.5 -12.4 -9.8 -16.7 0.6 -3.7 0.6 -3.8 -2.2 -3.1 -1.8 0.5 -3.5 0.2 -5.2 -0.9 -2.2 -1.4 -2.4 -2.1 -1.8 -5.6 0.6 -3.7 0.6 -3.9 -2 -3.9 -5.2 0 -6.5 -1.5 -6.5 -7.9 0 -7.7 -2.4 -14.5 -5.6 -16 -3 -1.3 -8.4 -1.4 -11.6 -0.2 -1.3 0.5 -6.5 5.9 -11.7 12 -13 15.5 -14.9 16.6 -20.4 11.4 -2.5 -2.5 -3.6 -2.8 -10 -2.8 l-7.2 -0.1 -0.8 -6.3 c-0.7 -4.6 -1.3 -6.1 -2.2 -5.7 -0.8 0.3 -2.9 0.8 -4.7 1.1 l-3.4 0.6 0.4 -3.8 c0.3 -3 -0.3 -4.7 -2.8 -8.1 -1.7 -2.4 -3 -4.6 -2.7 -4.8 0.2 -0.2 2.1 -1 4.2 -1.7 l3.8 -1.3 -3.6 -2.3 c-2.1 -1.3 -3.5 -2.7 -3.2 -3.2 0.3 -0.4 4.1 -0.8 8.3 -0.7 5.2 0.1 10.5 -0.5 16.2 -2 4.7 -1.2 11.4 -2.4 14.9 -2.5 5.5 -0.3 6.8 -0.8 8.8 -3.1 2.3 -2.7 2.9 -5.9 1.7 -9 -0.4 -1.1 -1.9 -1.6 -5 -1.6 -4.8 0 -6.4 -1.7 -6.4 -6.5 0 -2.2 -0.4 -2.5 -2 -2 -2.1 0.7 -7.3 -1.6 -10.7 -4.8 -1.6 -1.4 -2.3 -3.2 -2.3 -5.8 0 -3 -0.6 -4.1 -3.4 -6.2 -2.8 -2.2 -3.5 -3.6 -4.6 -9.1 -1 -5.2 -1.6 -6.7 -3.4 -7.2 -2.8 -0.8 -6.6 -4.4 -6.6 -6.2 0 -0.8 -1.1 -2.3 -2.5 -3.4 -2.1 -1.6 -2.5 -2.8 -2.5 -6.8 0 -4.4 -0.3 -5.1 -3.2 -7.1 -4.3 -2.9 -5.8 -4.8 -5.8 -7.5 0 -1.5 -0.8 -2.4 -2.5 -2.8 -5.6 -1.4 -5.3 -10.1 0.4 -9.4 4.3 0.5 3.8 -2.9 -1.2 -8.1 -5 -5.1 -6.7 -8 -6.7 -11 0 -2.8 4.3 -2.8 8.7 -0.1 4.4 2.7 5.3 0.7 1.1 -2.7 -6.8 -5.6 -10.9 -10.5 -10.6 -12.6 0.6 -4.4 3.7 -3 11.7 5.5 6.1 6.4 8.2 8 9.2 7.1 1.2 -1.2 1.3 -1.1 -8.4 -10.1 -3.5 -3.3 -4.7 -5.1 -4.7 -7.2 0 -3.3 1.3 -4.5 3.5 -3.2 0.9 0.4 5.5 5.5 10.3 11.2 4.8 5.7 9.4 10.6 10.2 10.8 1.2 0.4 1.1 0 -0.3 -2.1 -0.9 -1.4 -4.2 -6.4 -7.2 -11.1 l-5.5 -8.6 3.5 0 c3.3 0 3.7 0.3 5.9 5.4 2.8 6.3 10.2 17.6 11.6 17.6 2.1 0 1.6 -2.2 -3.1 -12.4 -2.7 -6 -4.7 -11.1 -4.4 -11.4 0.3 -0.3 2 0.2 3.9 1 3.3 1.6 4.6 3.8 6.6 11.3 1.5 5.8 7.3 16 9 16 1.2 0 1.4 -1.1 1.2 -5.2 -0.4 -5.6 0.8 -7.2 3.3 -4.7 3.4 3.4 12.2 17.5 20.3 32.4 10.8 19.8 18.6 31.3 27.6 40.9 4 4.2 10.3 11.4 14.1 15.9 3.7 4.6 8 8.8 9.4 9.3 2.7 1.1 12.1 -0.6 12.1 -2.1 0 -0.5 1.4 -2.2 3.1 -3.9 5.4 -5.5 13.6 -3.2 15.5 4.3 0.5 2.1 1.2 2.6 3.9 2.6 3.7 0 8.6 3.3 7 4.8 -0.5 0.5 -3.1 1.7 -5.6 2.6 -3.6 1.4 -4.8 2.4 -5.8 5.1 -0.7 1.9 -2.4 4.4 -3.9 5.6 -6.9 5.3 -6.7 9.3 0.6 19.1 3.1 4.2 9.6 15 14.5 24 12.6 23.6 18.9 30.8 31.5 36.2 7.5 3.3 15.1 7.9 23.8 14.4 13.5 10.2 17.4 14 17.4 17.1 0 3.8 3.4 7.2 12.2 12 8.4 4.6 11.3 7.3 10.5 9.6 -1.1 2.7 -4.1 1.6 -15.4 -6 -10.5 -7 -15.9 -9.3 -14.7 -6.2 0.2 0.6 6.3 5 13.4 9.6 14 8.9 16 11 13.4 13.5 -3 3.1 -5.8 1.8 -16 -7.3 -10 -8.9 -15.7 -12.4 -13.5 -8.3 0.6 1.1 5.6 6.2 11.1 11.3 8.3 7.7 10 9.8 9.8 11.9 -0.5 4.6 -3.4 3.4 -11 -4.7 -12.6 -13.4 -14.5 -15.3 -15.7 -15.3 -1.9 0 0.1 3.3 6 10 5.6 6.5 7.9 9.9 7.9 11.9 0 2.6 -3.1 0.5 -10.8 -7.4z"/>
 </g>
 <g fill="#58595b">
  <path d="M573.2 574 c0 -1.9 0.2 -2.7 0.5 -1.7 0.2 0.9 0.2 2.5 0 3.5 -0.3 0.9 -0.5 0.1 -0.5 -1.8z"/>
  <path d="M704.4 568 c0 -5.2 0.1 -7.4 0.3 -4.7 0.2 2.6 0.2 6.8 0 9.5 -0.2 2.6 -0.3 0.4 -0.3 -4.8z"/>
  <path d="M772.4 563 c0 -8 0.2 -11.2 0.3 -7.2 0.2 3.9 0.2 10.5 0 14.5 -0.1 3.9 -0.3 0.7 -0.3 -7.3z"/>
  <path d="M766 547.8 c0 -0.4 1.6 -0.8 3.5 -0.8 1.9 0 3.5 0.2 3.5 0.4 0 0.2 -1.6 0.6 -3.5 0.8 -1.9 0.2 -3.5 0 -3.5 -0.4z"/>
  <path d="M634 531.3 c-27.3 -0.4 -255.5 -2.3 -424.5 -3.4 -175.6 -1.2 -176.5 -1.2 -175.3 -5.1 0.2 -0.7 1.9 -1.7 3.6 -2.3 3.4 -1 4.1 -2.2 1.7 -3.1 -3.4 -1.3 -5.5 -6.9 -5.5 -14.7 0 -7.3 0.1 -7.5 2.7 -8.2 1.4 -0.3 7.2 -5 12.7 -10.4 5.6 -5.4 11.6 -10.6 13.3 -11.5 1.8 -0.9 3.5 -2.6 3.8 -3.9 1.6 -7.3 4.9 -25.9 5.2 -29.8 0.3 -3.2 -0.1 -5.7 -1.3 -8 -2.5 -4.9 -2.5 -14.4 0.2 -18.9 2.4 -4.2 7.4 -7.7 12.9 -9.2 3.8 -1 4 -1.3 3.7 -4.2 -0.3 -2.9 0.1 -3.4 6.1 -6.7 3.5 -2 10.1 -5.1 14.5 -7 l8.1 -3.4 0.1 -4.7 0 -4.8 -4.4 0 c-2.4 0 -6.3 0.7 -8.6 1.5 -2.3 0.8 -7.1 1.5 -10.6 1.5 -6.2 0 -6.6 -0.2 -11 -4.2 -5 -4.6 -6.8 -8 -5.9 -10.9 0.9 -2.8 4.6 -2.3 9.3 1.1 5.5 3.9 9.9 3.9 20.3 -0.1 10.8 -4.2 13.4 -3.6 21 4.1 3.1 3.2 6 6.8 6.4 7.9 1.1 3.7 5.5 2.6 9 -2.2 4 -5.5 7.5 -7.2 11.9 -5.7 5 1.6 7.5 5 8.7 11.6 1 5.6 0.9 6.3 -2 12.5 -2.2 4.9 -3.7 6.9 -5.8 7.8 -1.6 0.6 -3.3 2.4 -3.9 3.9 -0.9 2.5 -0.8 4.5 1.1 14.9 0.9 5.2 3.3 5.8 11.1 2.7 3.6 -1.5 8.6 -4.4 11.1 -6.6 4.5 -3.9 7.9 -4.8 10.1 -2.6 3.1 3.1 -0.3 8.8 -5.3 8.8 -1.1 0 -7.6 4.7 -14.4 10.4 -6.8 5.7 -13.5 10.7 -15 11 -4.5 0.9 -7.4 -2.2 -9.6 -10.5 -2.5 -9.2 -2.9 -9.9 -6.5 -9.9 -4.1 0 -22.8 4.6 -24.5 6 -2.2 1.8 -1.8 5.4 0.8 8.7 1.3 1.5 6.2 9.2 11 17.1 7.4 12 8.7 14.9 8.7 18.5 0 8.3 -2.9 9.6 -19.3 8.5 -21 -1.5 -25.4 0.4 -26.9 11.2 -0.9 6.6 -2.9 10 -5.8 10 -1.3 0 -1.9 -1.2 -2.3 -5 -0.7 -6.1 -1.2 -7 -3.8 -7 -2.7 0 -23.5 10.7 -26 13.3 -2.7 3 -2.4 5.2 1.9 12.5 l3.7 6.3 48 -0.5 c91.7 -1.1 155.8 -1.7 303.5 -2.6 81.7 -0.5 176.4 -1.2 210.4 -1.6 60.3 -0.6 61.9 -0.6 61 1.2 -0.5 1.1 -0.9 5.2 -0.8 9.2 l0.1 7.2 -12.1 -0.2 c-6.7 -0.1 -18.6 -0.3 -26.6 -0.5z m-533.2 -69.4 l2.5 -1 -3.3 -3.4 c-3.7 -3.8 -4.5 -4.2 -5.3 -2.2 -0.3 0.6 -1.3 2.9 -2.2 5.1 l-1.6 3.8 3.6 -0.6 c2.1 -0.4 4.9 -1.2 6.3 -1.7z"/>
  <path d="M776.8 490.3 c2.3 -0.2 5.9 -0.2 8 0 2 0.2 0.1 0.4 -4.3 0.4 -4.4 0 -6.1 -0.2 -3.7 -0.4z"/>
  <path d="M846.4 452 c0 -10.7 0.2 -15.1 0.3 -9.7 0.2 5.3 0.2 14.1 0 19.5 -0.1 5.3 -0.3 0.9 -0.3 -9.8z"/>
  <path d="M869.4 451.5 c0 -10.4 0.2 -14.6 0.3 -9.2 0.2 5.4 0.2 13.9 0 19 -0.1 5.1 -0.3 0.7 -0.3 -9.8z"/>
  <path d="M468.3 412.3 c0.9 -0.2 2.5 -0.2 3.5 0 0.9 0.3 0.1 0.5 -1.8 0.5 -1.9 0 -2.7 -0.2 -1.7 -0.5z"/>
 </g>
 <g fill="#f58220">
  <path d="M827 534.4 c-20.6 -0.7 -62.1 -1.6 -92.2 -2 l-54.7 -0.6 -1.2 -3.5 c-1.1 -3.4 -0.6 -10.6 0.9 -13 0.5 -0.9 13.3 -1.3 48.2 -1.8 26.1 -0.3 67.7 -1.3 92.4 -2.1 24.7 -0.8 47.3 -1.4 50.2 -1.4 l5.2 0 -0.1 13 -0.1 13 -5.6 -0.1 c-3 -0.1 -22.4 -0.8 -43 -1.5z"/>
  <path d="M939.3 533.3 c1.5 -0.2 3.7 -0.2 5 0 1.2 0.2 0 0.4 -2.8 0.4 -2.7 0 -3.8 -0.2 -2.2 -0.4z"/>
  <path d="M994.8 531.3 c1.2 -0.2 3 -0.2 4 0 0.9 0.3 -0.1 0.5 -2.3 0.4 -2.2 0 -3 -0.2 -1.7 -0.4z"/>
  <path d="M941 529 c0 -0.6 2.7 -1 6.1 -1 3.7 0 5.8 0.4 5.4 1 -0.3 0.6 -3.1 1 -6.1 1 -3 0 -5.4 -0.4 -5.4 -1z"/>
  <path d="M935.1 527.3 c-0.1 -1.6 0.5 -2.3 1.7 -2.3 1 0 1.3 0.3 0.6 0.8 -0.6 0.4 -1.4 1.4 -1.7 2.2 -0.4 1 -0.6 0.8 -0.6 -0.7z"/>
  <path d="M943.8 524.3 c1.2 -0.2 3.2 -0.2 4.5 0 1.2 0.2 0.2 0.4 -2.3 0.4 -2.5 0 -3.5 -0.2 -2.2 -0.4z"/>
  <path d="M988 523 c0 -0.5 1.6 -1 3.5 -1 1.9 0 3.5 0.5 3.5 1 0 0.6 -1.6 1 -3.5 1 -1.9 0 -3.5 -0.4 -3.5 -1z"/>
  <path d="M982.8 518.3 c1.2 -0.2 3 -0.2 4 0 0.9 0.3 -0.1 0.5 -2.3 0.4 -2.2 0 -3 -0.2 -1.7 -0.4z"/>
  <path d="M985.8 513.3 c1.2 -0.2 3.2 -0.2 4.5 0 1.2 0.2 0.2 0.4 -2.3 0.4 -2.5 0 -3.5 -0.2 -2.2 -0.4z"/>
  <path d="M369.2 329.3 l-2.2 -5.8 5.6 -5.6 c5.3 -5.4 5.9 -5.7 11.7 -6.2 5.6 -0.5 6.5 -0.9 8.7 -3.9 7.8 -10.4 17.2 -17.8 22.4 -17.8 3.1 0 21.4 -16.7 24.1 -21.9 4.2 -8.3 11 -13.1 18.4 -13.1 2.9 0 13.8 -7.8 14.5 -10.5 0.3 -1.1 0.6 -4.2 0.6 -7 0 -4.2 -1.3 -8 -8.2 -23 -4.6 -9.9 -14.3 -28.8 -21.6 -42 -13.1 -23.6 -13.3 -24.1 -13.9 -31.5 -0.3 -4.1 -0.1 -9 0.4 -10.8 l0.8 -3.3 25 21.2 c19.8 16.8 25.9 22.6 29.4 27.8 3.9 5.8 4.4 7.1 4.2 11.4 -0.2 3.9 0.2 5.4 1.8 6.9 1.2 1 2.1 2.9 2.1 4.1 0.1 2.4 1.1 3.9 5.2 7.5 l2.6 2.4 6.6 -5 c6.4 -4.8 6.8 -5 10.2 -3.9 4.7 1.4 5.4 3.6 6.1 17.3 l0.6 11.1 -3.5 0.7 c-2.6 0.5 -3.8 1.4 -5.1 4.1 -1.6 3.4 -1.6 3.6 1.6 9.5 1.7 3.3 3.8 6 4.5 6 2.2 0 23.4 11.4 33.9 18.2 10.9 7.1 11.7 8.1 19.6 22.9 6.1 11.4 12.2 19.5 19.1 25.4 8 6.9 7.6 8.5 -2.1 10 -4.9 0.8 -11.3 -1.7 -21 -8.2 -3.2 -2.2 -8 -4.8 -10.7 -5.8 -6.9 -2.5 -13.1 -8.6 -17.3 -17 -3.9 -7.7 -4.9 -8.7 -7.7 -8.1 -4.7 1.2 -26.3 -8.3 -32.9 -14.3 -2.4 -2.3 -5 -4.1 -5.6 -4.1 -3.1 0 -17.5 10.5 -27 19.7 l-10.6 10.1 -30.5 11.7 c-16.7 6.4 -32.6 12.9 -35.2 14.5 -2.6 1.6 -5.4 2.7 -6.2 2.4 -2.1 -0.8 -7.5 2 -11.8 6.1 -2 1.9 -3.9 3.5 -4.1 3.5 -0.2 0 -1.4 -2.6 -2.5 -5.7z"/>
 </g>
 <g fill="#ffffff">
  <path d="M665.3 574.5 c0 -4.4 0.2 -6.1 0.4 -3.7 0.2 2.3 0.2 5.9 0 8 -0.2 2 -0.4 0.1 -0.4 -4.3z"/>
  <path d="M736.3 574.5 c0 -4.4 0.2 -6.1 0.4 -3.7 0.2 2.3 0.2 5.9 0 8 -0.2 2 -0.4 0.1 -0.4 -4.3z"/>
  <path d="M748.4 571.5 c0 -6 0.1 -8.4 0.3 -5.2 0.2 3.2 0.2 8.1 0 11 -0.2 2.9 -0.3 0.3 -0.3 -5.8z"/>
  <path d="M892.5 564.5 l0 -17 6.5 -0.1 6.5 -0.1 -6.2 0.4 -6.3 0.4 -0.3 16.7 -0.3 16.7 0.1 -17z"/>
  <path d="M897.7 581.3 c0.6 -0.5 1.4 -3.5 1.6 -6.8 l0.4 -6 -0.1 6.4 c-0.1 4.8 -0.5 6.5 -1.6 6.8 -1.1 0.3 -1.1 0.2 -0.3 -0.4z"/>
  <path d="M918.4 569.5 c0 -7.1 0.1 -9.9 0.3 -6.2 0.2 3.7 0.2 9.6 0 13 -0.2 3.4 -0.3 0.4 -0.3 -6.8z"/>
  <path d="M965.2 565.3 l-0.2 -17.2 -3.2 -0.4 -3.3 -0.4 3.3 -0.1 c1.9 -0.1 3.5 0.3 3.8 1.1 0.2 0.7 0.3 8.7 0.1 17.7 l-0.3 16.5 -0.2 -17.2z"/>
  <path d="M625.4 569.5 c0 -6.6 0.1 -9.2 0.3 -5.7 0.2 3.4 0.2 8.8 0 12 -0.2 3.1 -0.3 0.3 -0.3 -6.3z"/>
  <path d="M864.4 569 c0 -6.9 0.1 -9.7 0.3 -6.2 0.2 3.4 0.2 9 0 12.5 -0.2 3.4 -0.3 0.6 -0.3 -6.3z"/>
  <path d="M934.4 569 c0 -6.9 0.1 -9.7 0.3 -6.2 0.2 3.4 0.2 9 0 12.5 -0.2 3.4 -0.3 0.6 -0.3 -6.3z"/>
  <path d="M941.4 569 c0 -6.9 0.1 -9.7 0.3 -6.2 0.2 3.4 0.2 9 0 12.5 -0.2 3.4 -0.3 0.6 -0.3 -6.3z"/>
  <path d="M710.4 569.5 c0 -6 0.1 -8.4 0.3 -5.2 0.2 3.2 0.2 8.1 0 11 -0.2 2.9 -0.3 0.3 -0.3 -5.8z"/>
  <path d="M686.2 576.8 c-2.4 -2.4 -1 -4.9 3.6 -6.2 1.9 -0.6 2.2 -0.4 2.2 1.8 0 2.3 -2.3 5.6 -3.9 5.6 -0.4 0 -1.2 -0.5 -1.9 -1.2z"/>
  <path d="M716.2 570.8 c-0.1 -4.2 -0.6 -8 -1.2 -8.3 -0.5 -0.3 -0.9 -1.8 -0.9 -3.3 l0.2 -2.7 0.4 2.5 c0.3 1.4 0.9 2.8 1.4 3.1 0.6 0.3 0.8 4.1 0.6 8.5 l-0.3 7.9 -0.2 -7.7z"/>
  <path d="M590 575.1 c-1.6 -3.1 -1.2 -10.7 0.6 -12.2 2.6 -2.2 4.9 0.1 5.2 5.4 0.5 7.3 -3.2 11.6 -5.8 6.8z"/>
  <path d="M820.9 575.1 c-2 -1.6 -2.4 -2.9 -2.7 -9.2 -0.3 -8.6 1.1 -12.3 4.9 -12.7 4.8 -0.6 6.4 3.6 6 15.6 -0.1 2.7 -0.8 4.9 -2.1 6.2 -2.5 2.5 -3.2 2.5 -6.1 0.1z"/>
  <path d="M847.4 575.7 c-0.3 -0.8 -0.3 -5.4 -0.2 -10.3 l0.3 -8.9 0.5 10.3 c0.5 10.1 0.4 11.4 -0.6 8.9z"/>
  <path d="M954.1 575.6 c-0.7 -0.9 -1.1 -3.8 -0.9 -7.3 0.2 -4.7 0.6 -5.8 2.2 -6.1 2.6 -0.5 3.6 1.5 3.6 7.4 0 6.4 -2.3 9.2 -4.9 6z"/>
  <path d="M613.4 566 c0 -5.2 0.1 -7.4 0.3 -4.7 0.2 2.6 0.2 6.8 0 9.5 -0.2 2.6 -0.3 0.4 -0.3 -4.8z"/>
  <path d="M946.3 569 c0 -3.6 0.2 -5 0.4 -3.2 0.2 1.7 0.2 4.7 0 6.5 -0.2 1.7 -0.4 0.3 -0.4 -3.3z"/>
  <path d="M618.3 566 c0 -4.7 0.2 -6.6 0.4 -4.2 0.2 2.3 0.2 6.1 0 8.5 -0.2 2.3 -0.4 0.4 -0.4 -4.3z"/>
  <path d="M582.3 569 c0 -2.5 0.2 -3.5 0.4 -2.2 0.2 1.2 0.2 3.2 0 4.5 -0.2 1.2 -0.4 0.2 -0.4 -2.3z"/>
  <path d="M602.3 569 c0 -2.5 0.2 -3.5 0.4 -2.2 0.2 1.2 0.2 3.2 0 4.5 -0.2 1.2 -0.4 0.2 -0.4 -2.3z"/>
  <path d="M852.3 565 c0 -4.7 0.2 -6.6 0.4 -4.2 0.2 2.3 0.2 6.1 0 8.5 -0.2 2.3 -0.4 0.4 -0.4 -4.3z"/>
  <path d="M976 571.8 c0 -0.5 3.1 -0.8 6.9 -0.8 6.7 0 7 -0.1 7.4 -2.5 0.4 -2.3 0.4 -2.3 0.3 0.2 -0.1 2.7 -0.3 2.8 -7.4 3.3 -3.9 0.3 -7.2 0.2 -7.2 -0.2z"/>
  <path d="M976 566 c0 -1.8 3.9 -5 5.5 -4.4 0.8 0.4 1.5 1 1.5 1.4 0 0.5 0.3 1.5 0.6 2.4 0.5 1.3 -0.2 1.6 -3.5 1.6 -2.3 0 -4.1 -0.4 -4.1 -1z"/>
  <path d="M785 564.5 c-1.3 -1.5 -0.6 -3.5 1.3 -3.5 0.8 0 0.7 0.4 -0.2 0.9 -1.2 0.8 -1.2 1.2 -0.2 2.5 0.8 0.9 1.1 1.6 0.8 1.6 -0.2 0 -1 -0.7 -1.7 -1.5z"/>
  <path d="M899 557.9 l0 -5.1 3.2 0.6 c3.5 0.7 4.8 2 4.8 5.2 0 2.8 -1.9 4.4 -5.2 4.4 -2.7 0 -2.8 -0.2 -2.8 -5.1z"/>
  <path d="M665.7 561.3 c-0.4 -0.3 -0.7 -2.4 -0.7 -4.5 l0 -3.8 6 0 c5.7 0 6 -0.1 6 -2.5 0 -2.4 -0.2 -2.4 -9.2 -2.8 l-9.3 -0.3 9.5 0 9.5 0.1 0 3 c0 3 -0.1 3 -5.7 3.3 l-5.8 0.3 0 3.4 c0 3.3 0.1 3.4 4.8 3.8 l4.7 0.3 -4.6 0.2 c-2.5 0.1 -4.9 -0.1 -5.2 -0.5z"/>
  <path d="M736.2 554.3 l0.1 -4.8 0.4 4.3 c0.3 2.7 0.8 4 1.5 3.6 0.7 -0.4 0.8 -0.2 0.4 0.4 -1.5 2.5 -2.6 1 -2.4 -3.5z"/>
  <path d="M687.8 556.3 c1.2 -0.2 3 -0.2 4 0 0.9 0.3 -0.1 0.5 -2.3 0.4 -2.2 0 -3 -0.2 -1.7 -0.4z"/>
  <path d="M784.3 556.3 c0.9 -0.2 2.5 -0.2 3.5 0 0.9 0.3 0.1 0.5 -1.8 0.5 -1.9 0 -2.7 -0.2 -1.7 -0.5z"/>
  <path d="M978.3 556.3 c0.9 -0.2 2.5 -0.2 3.5 0 0.9 0.3 0.1 0.5 -1.8 0.5 -1.9 0 -2.7 -0.2 -1.7 -0.5z"/>
  <path d="M934.4 550 c0.1 -2.2 0.6 -2.5 3.6 -2.5 3.1 0 3.5 0.3 3.6 2.8 0.1 2.5 0.1 2.5 -0.3 0.2 -0.3 -2 -1 -2.5 -3.3 -2.5 -2.2 0 -3 0.5 -3.3 2.3 -0.3 1.9 -0.4 1.9 -0.3 -0.3z"/>
  <path d="M710.1 550.3 c-0.1 -1.6 -0.9 -2.3 -2.8 -2.6 l-2.8 -0.4 2.8 -0.2 c2.8 -0.1 4.3 1.7 3.4 4.1 -0.3 0.7 -0.6 0.3 -0.6 -0.9z"/>
  <path d="M565 549.1 c0 -0.9 -1.2 -1.2 -4 -0.9 -2.2 0.2 -4 0 -4 -0.4 0 -1.2 7.8 -0.9 8.5 0.3 0.4 0.6 0.4 1.3 0.1 1.6 -0.3 0.4 -0.6 0.1 -0.6 -0.6z"/>
  <path d="M575.7 547.8 c0.2 -0.5 1.9 -0.8 3.8 -0.8 1.9 0 3.6 0.3 3.8 0.8 0.3 0.4 -1.4 0.7 -3.8 0.7 -2.4 0 -4.1 -0.3 -3.8 -0.7z"/>
  <path d="M733.5 548 l-3 -0.8 2.7 -0.1 c1.5 0 3 0.4 3.3 0.9 0.3 0.6 0.5 0.9 0.3 0.9 -0.2 -0.1 -1.6 -0.5 -3.3 -0.9z"/>
  <path d="M767.8 547.3 c1.2 -0.2 3 -0.2 4 0 0.9 0.3 -0.1 0.5 -2.3 0.4 -2.2 0 -3 -0.2 -1.7 -0.4z"/>
  <path d="M865.8 535.3 c1.2 -0.2 3 -0.2 4 0 0.9 0.3 -0.1 0.5 -2.3 0.4 -2.2 0 -3 -0.2 -1.7 -0.4z"/>
  <path d="M835.8 534.3 c1.2 -0.2 3 -0.2 4 0 0.9 0.3 -0.1 0.5 -2.3 0.4 -2.2 0 -3 -0.2 -1.7 -0.4z"/>
  <path d="M805.8 533.3 c1.2 -0.2 3 -0.2 4 0 0.9 0.3 -0.1 0.5 -2.3 0.4 -2.2 0 -3 -0.2 -1.7 -0.4z"/>
  <path d="M738.3 532.3 c2.6 -0.2 6.8 -0.2 9.5 0 2.6 0.2 0.4 0.3 -4.8 0.3 -5.2 0 -7.4 -0.1 -4.7 -0.3z"/>
  <path d="M654.3 531.3 c3.7 -0.2 9.6 -0.2 13 0 3.4 0.2 0.4 0.3 -6.8 0.3 -7.1 0 -9.9 -0.1 -6.2 -0.3z"/>
  <path d="M556.8 530.3 c5.6 -0.2 14.8 -0.2 20.5 0 5.6 0.1 1 0.3 -10.3 0.3 -11.3 0 -15.9 -0.2 -10.2 -0.3z"/>
  <path d="M442.3 529.3 c5.9 -0.2 15.5 -0.2 21.5 0 5.9 0.1 1 0.3 -10.8 0.3 -11.8 0 -16.7 -0.2 -10.7 -0.3z"/>
  <path d="M949.5 529 c0.3 -0.6 2.7 -1 5.2 -1 5.7 0 5.3 0.5 -1 1.3 -3.1 0.4 -4.6 0.3 -4.2 -0.3z"/>
  <path d="M311.3 528.3 c7.5 -0.2 19.9 -0.2 27.5 0 7.5 0.1 1.3 0.3 -13.8 0.3 -15.1 0 -21.3 -0.2 -13.7 -0.3z"/>
  <path d="M167.3 527.3 c7 -0.2 18.4 -0.2 25.5 0 7 0.1 1.2 0.3 -12.8 0.3 -14 0 -19.8 -0.2 -12.7 -0.3z"/>
  <path d="M41.8 526.3 c1.2 -0.2 3.2 -0.2 4.5 0 1.2 0.2 0.2 0.4 -2.3 0.4 -2.5 0 -3.5 -0.2 -2.2 -0.4z"/>
  <path d="M992 523 c0 -0.5 1.7 -1 3.8 -1 2.7 0 3.3 0.3 2.2 1 -2 1.3 -6 1.3 -6 0z"/>
  <path d="M934.8 518.5 c0.4 -2.2 0.9 -2.5 4.6 -2.4 l4.1 0.2 -3.8 0.6 c-4.6 0.7 -5.2 2.4 -1.1 3.2 2.8 0.6 2.8 0.7 -0.7 0.8 -3.3 0.1 -3.6 -0.1 -3.1 -2.4z"/>
  <path d="M106.7 518.3 c5.1 -0.2 13.5 -0.2 18.5 0 5.1 0.1 1 0.3 -9.2 0.3 -10.2 0 -14.3 -0.2 -9.3 -0.3z"/>
  <path d="M866.8 518.3 c1.2 -0.2 3.2 -0.2 4.5 0 1.2 0.2 0.2 0.4 -2.3 0.4 -2.5 0 -3.5 -0.2 -2.2 -0.4z"/>
  <path d="M214.8 517.3 c5.6 -0.2 14.8 -0.2 20.5 0 5.6 0.1 1 0.3 -10.3 0.3 -11.3 0 -15.9 -0.2 -10.2 -0.3z"/>
  <path d="M341.8 516.3 c7.9 -0.2 20.5 -0.2 28 0 7.5 0.1 1.1 0.3 -14.3 0.3 -15.4 0 -21.6 -0.2 -13.7 -0.3z"/>
  <path d="M875.2 514 c0 -1.9 0.2 -2.7 0.5 -1.7 0.2 0.9 0.2 2.5 0 3.5 -0.3 0.9 -0.5 0.1 -0.5 -1.8z"/>
  <path d="M487.8 515.3 c6.7 -0.2 17.7 -0.2 24.5 0 6.7 0.1 1.2 0.3 -12.3 0.3 -13.5 0 -19 -0.2 -12.2 -0.3z"/>
  <path d="M621.8 514.3 c5.7 -0.2 14.7 -0.2 20 0 5.3 0.1 0.7 0.3 -10.3 0.3 -11 0 -15.4 -0.2 -9.7 -0.3z"/>
  <path d="M653.3 514.3 c0.9 -0.2 2.5 -0.2 3.5 0 0.9 0.3 0.1 0.5 -1.8 0.5 -1.9 0 -2.7 -0.2 -1.7 -0.5z"/>
  <path d="M991 514 c-2.3 -0.7 -2.2 -0.8 1 -0.8 1.9 0 4.4 0.3 5.5 0.8 1.7 0.7 1.5 0.9 -1 0.8 -1.6 0 -4.1 -0.4 -5.5 -0.8z"/>
  <path d="M723.8 513.3 c2.8 -0.2 7.6 -0.2 10.5 0 2.8 0.2 0.5 0.3 -5.3 0.3 -5.8 0 -8.1 -0.1 -5.2 -0.3z"/>
  <path d="M791.8 512.3 c1.2 -0.2 3.2 -0.2 4.5 0 1.2 0.2 0.2 0.4 -2.3 0.4 -2.5 0 -3.5 -0.2 -2.2 -0.4z"/>
  <path d="M823.8 511.3 c1.2 -0.2 3 -0.2 4 0 0.9 0.3 -0.1 0.5 -2.3 0.4 -2.2 0 -3 -0.2 -1.7 -0.4z"/>
  <path d="M853.8 510.3 c1.2 -0.2 3 -0.2 4 0 0.9 0.3 -0.1 0.5 -2.3 0.4 -2.2 0 -3 -0.2 -1.7 -0.4z"/>
  <path d="M75 497.3 c0 -1.1 0.3 -1.4 0.8 -0.7 0.4 0.6 1.4 1.4 2.2 1.7 1 0.4 0.8 0.6 -0.7 0.6 -1.6 0.1 -2.3 -0.5 -2.3 -1.6z"/>
  <path d="M308.8 493.3 c1.7 -0.2 4.7 -0.2 6.5 0 1.7 0.2 0.3 0.4 -3.3 0.4 -3.6 0 -5 -0.2 -3.2 -0.4z"/>
  <path d="M82.3 488.5 c0 -2.2 0.2 -3 0.4 -1.7 0.2 1.2 0.2 3 0 4 -0.3 0.9 -0.5 -0.1 -0.4 -2.3z"/>
  <path d="M351.3 491.3 c0.9 -0.2 2.5 -0.2 3.5 0 0.9 0.3 0.1 0.5 -1.8 0.5 -1.9 0 -2.7 -0.2 -1.7 -0.5z"/>
  <path d="M365.8 491.3 c1.2 -0.2 3 -0.2 4 0 0.9 0.3 -0.1 0.5 -2.3 0.4 -2.2 0 -3 -0.2 -1.7 -0.4z"/>
  <path d="M372.8 486 c-0.1 -3.3 0 -6 0.5 -6 0.4 0 0.7 2.7 0.7 6 0 7.7 -0.7 7.7 -1.2 0z"/>
  <path d="M385.2 486.3 c-0.2 -5.4 0 -6.3 1.6 -6.3 1.1 0 1.3 0.3 0.5 0.8 -0.6 0.4 -1.3 3.2 -1.6 6.2 l-0.3 5.5 -0.2 -6.2z"/>
  <path d="M466.8 486 c-0.1 -3.3 0 -6 0.5 -6 0.4 0 0.7 2.7 0.7 6 0 7.7 -0.7 7.7 -1.2 0z"/>
  <path d="M522.3 491.3 c0.9 -0.2 2.5 -0.2 3.5 0 0.9 0.3 0.1 0.5 -1.8 0.5 -1.9 0 -2.7 -0.2 -1.7 -0.5z"/>
  <path d="M553.3 491.3 c0.9 -0.2 2.5 -0.2 3.5 0 0.9 0.3 0.1 0.5 -1.8 0.5 -1.9 0 -2.7 -0.2 -1.7 -0.5z"/>
  <path d="M567.3 488 c0 -2.5 0.2 -3.5 0.4 -2.2 0.2 1.2 0.2 3.2 0 4.5 -0.2 1.2 -0.4 0.2 -0.4 -2.3z"/>
  <path d="M577.4 486.3 c0.1 -4.4 0.5 -5.8 1.6 -5.9 0.8 0 1 0.1 0.3 0.3 -0.7 0.2 -1.4 2.8 -1.6 5.9 l-0.4 5.4 0.1 -5.7z"/>
  <path d="M590.3 491.3 c0.9 -0.2 2.5 -0.2 3.5 0 0.9 0.3 0.1 0.5 -1.8 0.5 -1.9 0 -2.7 -0.2 -1.7 -0.5z"/>
  <path d="M716 486.3 c-0.3 -3.4 -0.1 -5.8 0.3 -5.4 0.5 0.4 0.7 3.2 0.5 6.2 l-0.3 5.4 -0.5 -6.2z"/>
  <path d="M757.8 491.3 c1.2 -0.2 3.2 -0.2 4.5 0 1.2 0.2 0.2 0.4 -2.3 0.4 -2.5 0 -3.5 -0.2 -2.2 -0.4z"/>
  <path d="M867.7 491.3 c1.8 -0.2 5 -0.2 7 0 2.1 0.2 0.7 0.4 -3.2 0.4 -3.8 0 -5.5 -0.2 -3.8 -0.4z"/>
  <path d="M882.7 491.3 c1.8 -0.2 5 -0.2 7 0 2.1 0.2 0.7 0.4 -3.2 0.4 -3.8 0 -5.5 -0.2 -3.8 -0.4z"/>
  <path d="M346.1 486.3 c0 -2.8 0.2 -5.4 0.7 -5.7 0.4 -0.2 0.6 1.4 0.4 3.7 -0.5 6.8 -1 7.6 -1.1 2z"/>
  <path d="M752.4 486.1 c0.1 -3.9 0.5 -5.6 1.6 -5.8 1 -0.3 1.1 -0.2 0.3 0.4 -0.6 0.5 -1.4 3.1 -1.6 5.8 l-0.4 5 0.1 -5.4z"/>
  <path d="M645.1 485.3 c0 -2.9 0.3 -5.3 0.7 -5.3 0.4 0 0.6 1.7 0.4 3.8 -0.6 6.4 -1 6.9 -1.1 1.5z"/>
  <path d="M336.8 479 l0.3 -9.9 -5.3 -0.4 -5.3 -0.3 5.8 -0.2 5.7 -0.2 0 9.9 c0 5.5 -0.3 10.2 -0.7 10.4 -0.5 0.3 -0.7 -3.9 -0.5 -9.3z"/>
  <path d="M281.9 482.3 l-3.4 -3.8 3.8 3.4 c2 1.9 3.7 3.6 3.7 3.8 0 0.8 -0.8 0 -4.1 -3.4z"/>
  <path d="M544.8 480.3 c1.2 -0.2 3.2 -0.2 4.5 0 1.2 0.2 0.2 0.4 -2.3 0.4 -2.5 0 -3.5 -0.2 -2.2 -0.4z"/>
  <path d="M612.3 480.3 c1.5 -0.2 3.7 -0.2 5 0 1.2 0.2 0 0.4 -2.8 0.4 -2.7 0 -3.8 -0.2 -2.2 -0.4z"/>
  <path d="M787.8 480.3 c1.2 -0.2 3.2 -0.2 4.5 0 1.2 0.2 0.2 0.4 -2.3 0.4 -2.5 0 -3.5 -0.2 -2.2 -0.4z"/>
  <path d="M105.3 477.3 c0.9 -0.2 2.5 -0.2 3.5 0 0.9 0.3 0.1 0.5 -1.8 0.5 -1.9 0 -2.7 -0.2 -1.7 -0.5z"/>
  <path d="M567 473.1 c0 -3.9 -0.1 -4 -3.7 -4.4 l-3.8 -0.4 4.3 -0.1 4.2 -0.2 0 4.5 c0 2.5 -0.2 4.5 -0.5 4.5 -0.3 0 -0.5 -1.8 -0.5 -3.9z"/>
  <path d="M652.4 464.5 c0 -6.6 0.1 -9.2 0.3 -5.7 0.2 3.4 0.2 8.8 0 12 -0.2 3.1 -0.3 0.3 -0.3 -6.3z"/>
  <path d="M781.4 452.5 c0 -13.2 0.2 -18.5 0.3 -11.7 0.2 6.8 0.2 17.6 0 24 -0.1 6.4 -0.3 0.9 -0.3 -12.3z"/>
  <path d="M538.3 467 c0 -4.7 0.2 -6.6 0.4 -4.2 0.2 2.3 0.2 6.1 0 8.5 -0.2 2.3 -0.4 0.4 -0.4 -4.3z"/>
  <path d="M825.4 451.5 c0 -13.2 0.2 -18.5 0.3 -11.7 0.2 6.8 0.2 17.6 0 24 -0.1 6.4 -0.3 0.9 -0.3 -12.3z"/>
  <path d="M460.3 467 c0 -4.1 0.2 -5.8 0.4 -3.7 0.2 2 0.2 5.4 0 7.5 -0.2 2 -0.4 0.3 -0.4 -3.8z"/>
  <path d="M517.4 452 c0 -12.4 0.2 -17.4 0.3 -11.2 0.2 6.1 0.2 16.3 0 22.5 -0.1 6.1 -0.3 1.1 -0.3 -11.3z"/>
  <path d="M965.3 466 c0 -4.7 0.2 -6.6 0.4 -4.2 0.2 2.3 0.2 6.1 0 8.5 -0.2 2.3 -0.4 0.4 -0.4 -4.3z"/>
  <path d="M635 470.7 c0 -1.1 -1.1 -1.7 -3.7 -2 l-3.8 -0.4 3.8 -0.1 c2.6 -0.1 3.9 0.3 4.4 1.3 0.3 0.9 0.3 1.9 -0.1 2.2 -0.3 0.4 -0.6 -0.1 -0.6 -1z"/>
  <path d="M380 469 l-10.5 -0.6 10.2 -0.2 c5.9 -0.1 10.4 0.2 10.8 0.8 0.3 0.6 0.5 0.9 0.3 0.8 -0.2 -0.1 -5 -0.5 -10.8 -0.8z"/>
  <path d="M87.3 464.9 c0.7 -5.2 5.7 -15.3 7.8 -15.7 2.4 -0.4 11.9 8.5 11.9 11.3 0 3.1 -1.3 4 -10.3 6.4 -10.3 2.8 -10.1 2.8 -9.4 -2z"/>
  <path d="M804.8 468.3 c1.2 -0.2 3 -0.2 4 0 0.9 0.3 -0.1 0.5 -2.3 0.4 -2.2 0 -3 -0.2 -1.7 -0.4z"/>
  <path d="M904.8 463.3 c1.2 -0.2 3.2 -0.2 4.5 0 1.2 0.2 0.2 0.4 -2.3 0.4 -2.5 0 -3.5 -0.2 -2.2 -0.4z"/>
  <path d="M626.4 452 c0 -6.3 0.1 -8.9 0.3 -5.7 0.2 3.1 0.2 8.3 0 11.5 -0.2 3.1 -0.3 0.5 -0.3 -5.8z"/>
  <path d="M910.4 451.5 c0 -6 0.1 -8.4 0.3 -5.2 0.2 3.2 0.2 8.1 0 11 -0.2 2.9 -0.3 0.3 -0.3 -5.8z"/>
  <path d="M678.4 459.9 c-0.3 -0.6 -1.5 -0.9 -2.5 -0.6 -1.1 0.3 -1.7 0.1 -1.3 -0.4 0.8 -1.4 3 -1.1 4.4 0.6 0.7 0.8 1 1.5 0.7 1.5 -0.3 0 -0.9 -0.5 -1.3 -1.1z"/>
  <path d="M484.5 457 c-1.6 -1.6 -2.5 -3 -1.9 -2.9 0.8 0 6 5.9 5.2 5.9 -0.3 0 -1.7 -1.3 -3.3 -3z"/>
  <path d="M293.3 451.5 c0 -2.7 0.2 -3.8 0.4 -2.2 0.2 1.5 0.2 3.7 0 5 -0.2 1.2 -0.4 0 -0.4 -2.8z"/>
  <path d="M374 454.9 c0 -1.7 6.1 -21.2 6.5 -20.7 0.5 0.5 5.5 19.2 5.5 20.6 0 0.8 -1.9 1.2 -6 1.2 -3.8 0 -6 -0.4 -6 -1.1z"/>
  <path d="M558.3 452.5 c0 -2.2 0.2 -3 0.4 -1.7 0.2 1.2 0.2 3 0 4 -0.3 0.9 -0.5 -0.1 -0.4 -2.3z"/>
  <path d="M439.4 438 c0 -5.2 0.1 -7.4 0.3 -4.7 0.2 2.6 0.2 6.8 0 9.5 -0.2 2.6 -0.3 0.4 -0.3 -4.8z"/>
  <path d="M461.6 444.4 c-1.8 -1.8 -2.2 -13.6 -0.6 -17.8 0.8 -2.2 1.6 -2.6 4.8 -2.6 5.8 0 8.2 3.1 8.2 10.4 0 5 -0.4 6.1 -2.9 8.7 -3.3 3.2 -7.1 3.8 -9.5 1.3z"/>
  <path d="M675.2 444.8 c-0.7 -0.7 -1.2 -4.4 -1.2 -9.8 0 -5.4 0.5 -9.1 1.2 -9.8 1.3 -1.3 5.6 -1.6 8.3 -0.6 4.1 1.6 5.8 11 3 16.5 -2.3 4.3 -8.6 6.4 -11.3 3.7z"/>
  <path d="M538.3 437 c0 -4.1 0.2 -5.8 0.4 -3.7 0.2 2 0.2 5.4 0 7.5 -0.2 2 -0.4 0.3 -0.4 -3.8z"/>
  <path d="M110 435.8 c-1.5 -2.1 -1.7 -2.8 -0.6 -1.9 1.6 1.3 4.1 5.1 3.3 5.1 -0.2 0 -1.4 -1.5 -2.7 -3.2z"/>
  <path d="M495.2 434 c0 -1.9 0.2 -2.7 0.5 -1.7 0.2 0.9 0.2 2.5 0 3.5 -0.3 0.9 -0.5 0.1 -0.5 -1.8z"/>
  <path d="M191.1 434.2 c-0.6 -1.1 -0.6 -2.4 0 -3.5 1.6 -2.8 2.9 -2 2.9 1.8 0 3.8 -1.3 4.6 -2.9 1.7z"/>
  <path d="M195 431.8 c0 -2.6 -0.5 -3.8 -1.4 -3.8 -1.2 0 -1.2 -0.6 -0.3 -3.5 1.1 -3.8 3.7 -4.8 3.7 -1.5 0 1.1 0.5 2 1 2 0.6 0 1 -0.7 1 -1.5 0 -1.1 1.1 -1.5 3.6 -1.5 l3.5 0 -3.3 4.1 c-1.8 2.2 -4.3 5.3 -5.5 6.7 l-2.2 2.7 -0.1 -3.7z"/>
  <path d="M562 434.3 c2.4 -0.2 4.8 -1 5.3 -1.6 0.6 -0.8 0.7 -0.7 0.4 0.3 -0.2 1.1 -1.8 1.5 -5.3 1.6 l-4.9 0.1 4.5 -0.4z"/>
  <path d="M628.3 434.3 c1.5 -0.2 3.7 -0.2 5 0 1.2 0.2 0 0.4 -2.8 0.4 -2.7 0 -3.8 -0.2 -2.2 -0.4z"/>
  <path d="M987.4 423.5 c0 -6.6 0.1 -9.2 0.3 -5.7 0.2 3.4 0.2 8.8 0 12 -0.2 3.1 -0.3 0.3 -0.3 -6.3z"/>
  <path d="M282.5 423 c2.1 -2.2 4.1 -4 4.4 -4 0.3 0 -1.3 1.8 -3.4 4 -2.1 2.2 -4.1 4 -4.4 4 -0.3 0 1.3 -1.8 3.4 -4z"/>
  <path d="M68.2 421 c0 -1.9 0.2 -2.7 0.5 -1.7 0.2 0.9 0.2 2.5 0 3.5 -0.3 0.9 -0.5 0.1 -0.5 -1.8z"/>
  <path d="M431.4 422.6 c-0.3 -0.7 -0.3 -3.5 -0.1 -6.2 l0.3 -4.9 0.2 5.7 c0.1 3.4 0.7 5.8 1.5 6.1 0.9 0.4 0.9 0.6 -0.1 0.6 -0.7 0.1 -1.5 -0.5 -1.8 -1.3z"/>
  <path d="M577.4 422.6 c-0.3 -0.7 -0.3 -3.5 -0.1 -6.2 l0.3 -4.9 0.2 5.7 c0.2 4.4 0.6 5.8 2 6.1 1.6 0.4 1.6 0.5 -0.1 0.6 -1 0 -2 -0.5 -2.3 -1.3z"/>
  <path d="M786.7 423.3 c0.6 -0.5 1.4 -3.3 1.6 -6.3 l0.4 -5.5 -0.1 5.9 c-0.1 4.4 -0.5 6 -1.6 6.3 -1 0.3 -1.1 0.2 -0.3 -0.4z"/>
  <path d="M818.4 422.6 c-0.3 -0.7 -0.3 -3.5 -0.1 -6.2 l0.3 -4.9 0.2 5.7 c0.2 4.4 0.6 5.8 2 6.1 1.6 0.4 1.6 0.5 -0.1 0.6 -1 0 -2 -0.5 -2.3 -1.3z"/>
  <path d="M852.2 423.4 c1.3 -0.4 1.8 -1.9 2.1 -6.2 l0.4 -5.7 -0.1 6 c-0.1 5.2 -0.4 6 -2.1 6.2 -1.5 0.1 -1.5 0 -0.3 -0.3z"/>
  <path d="M209 419.6 c0 -1.9 1.3 -2.5 12 -5.1 6.6 -1.7 12 -3.3 12 -3.7 0 -0.5 1.6 -0.8 3.5 -0.8 1.9 0 3.5 0.5 3.5 1.1 0 1.5 -6.1 3.9 -19.2 7.4 -11.7 3.2 -11.8 3.2 -11.8 1.1z"/>
  <path d="M918.3 418 c0 -2.5 0.2 -3.5 0.4 -2.2 0.2 1.2 0.2 3.2 0 4.5 -0.2 1.2 -0.4 0.2 -0.4 -2.3z"/>
  <path d="M197 415.5 c0 -0.9 1.4 -1.6 3.8 -2 2 -0.3 5.9 -1 8.5 -1.5 6.5 -1.3 6.7 -1.3 6.7 0.9 0 1.5 -1.2 2.1 -6.3 3 -8.9 1.5 -12.7 1.4 -12.7 -0.4z"/>
  <path d="M442.2 412.3 c3.7 -0.2 10 -0.2 14 0 4 0.1 1 0.3 -6.7 0.3 -7.7 0 -11 -0.1 -7.3 -0.3z"/>
  <path d="M533.8 412.3 c4.6 -0.2 11.8 -0.2 16 0 4.2 0.1 0.5 0.3 -8.3 0.3 -8.8 0 -12.3 -0.2 -7.7 -0.3z"/>
  <path d="M600.3 412.3 c4.2 -0.2 11.2 -0.2 15.5 0 4.2 0.1 0.7 0.3 -7.8 0.3 -8.5 0 -12 -0.2 -7.7 -0.3z"/>
  <path d="M656.2 412.3 c3.7 -0.2 10 -0.2 14 0 4 0.1 1 0.3 -6.7 0.3 -7.7 0 -11 -0.1 -7.3 -0.3z"/>
  <path d="M781.3 412.3 c0.9 -0.2 2.5 -0.2 3.5 0 0.9 0.3 0.1 0.5 -1.8 0.5 -1.9 0 -2.7 -0.2 -1.7 -0.5z"/>
  <path d="M829.3 412.3 c3.7 -0.2 9.7 -0.2 13.5 0 3.7 0.2 0.6 0.3 -6.8 0.3 -7.4 0 -10.5 -0.1 -6.7 -0.3z"/>
  <path d="M877.8 412.3 c6.7 -0.2 17.7 -0.2 24.5 0 6.7 0.1 1.2 0.3 -12.3 0.3 -13.5 0 -19 -0.2 -12.2 -0.3z"/>
  <path d="M943.8 412.3 c6.8 -0.2 17.6 -0.2 24 0 6.4 0.1 0.9 0.3 -12.3 0.3 -13.2 0 -18.5 -0.2 -11.7 -0.3z"/>
  <path d="M241 409.2 c0 -1.2 1.3 -2.3 3.5 -3.2 1.9 -0.8 3.5 -1.9 3.5 -2.6 0 -1.3 2.2 -2.4 5.1 -2.4 1 0 1.9 -0.4 1.9 -1 0 -0.5 1.6 -1 3.5 -1 1.9 0 3.5 -0.4 3.5 -0.8 0 -1 6.8 -3.2 9.9 -3.2 1.1 0 2.1 -0.4 2.1 -1 0 -0.5 1.1 -1 2.5 -1 1.4 0 2.5 -0.4 2.5 -1 0 -0.5 1.6 -1 3.5 -1 8.3 0 2 3.6 -15.8 9.1 -11.9 3.7 -15.4 5.3 -18.4 8.5 -2.7 2.9 -7.3 3.3 -7.3 0.6z"/>
  <path d="M312.8 410.3 c1.7 -0.2 4.7 -0.2 6.5 0 1.7 0.2 0.3 0.4 -3.3 0.4 -3.6 0 -5 -0.2 -3.2 -0.4z"/>
  <path d="M222.5 406.4 c3.8 -3.4 4 -3.4 4.3 -1.4 0.6 3.8 -0.5 5 -4.5 5 l-3.8 -0.1 4 -3.5z"/>
  <path d="M1001.9 403.6 c-9.9 -2.7 -18.3 -9.7 -23.6 -19.8 -2.5 -4.8 -2.8 -6.3 -2.8 -15.3 0 -8.8 0.3 -10.7 2.7 -15.7 3.4 -7.3 9.8 -13.7 17.4 -17.4 5.3 -2.6 6.9 -2.9 15.9 -2.9 8.9 0 10.6 0.3 15.7 2.8 7.4 3.6 13.9 10.1 17.5 17.5 2.5 5 2.8 6.8 2.8 15.2 0 8.2 -0.4 10.3 -2.6 15.1 -7.8 16.6 -25.7 25.2 -43 20.5z m3.3 -24.3 c0.3 -7.3 0.4 -7.8 2.6 -8.1 3 -0.4 6.1 2.4 11 10 3.7 5.7 3.8 5.8 8.5 5.8 l4.8 0 -3.7 -5.7 c-2 -3.2 -4.7 -7 -6.1 -8.4 l-2.4 -2.6 3.1 -1.3 c6.3 -2.6 7.9 -10.9 3.1 -16.2 l-2.9 -3.3 -12.6 -0.3 -12.6 -0.4 0 19.1 0 19.1 3.5 0 3.4 0 0.3 -7.7z"/>
  <path d="M1005.4 363.6 c-0.3 -0.8 -0.4 -2.9 -0.2 -4.8 0.3 -3.2 0.4 -3.3 5.3 -3.6 2.8 -0.1 6.1 0.4 7.5 1.1 3.1 1.6 3.9 5.6 1.4 7.4 -2.5 1.8 -13.3 1.7 -14 -0.1z"/>
  <path d="M239 396.3 c0 -0.5 1.6 -1.8 3.5 -3.1 l3.5 -2.2 0 3 c0 2.8 -0.3 3 -3.5 3 -1.9 0 -3.5 -0.3 -3.5 -0.7z"/>
  <path d="M291 387.3 c0 -4.3 9.4 -13.3 13.8 -13.3 1.8 0 3.2 0.2 3.2 0.4 0 0.6 -12.6 12.6 -15 14.3 -1.9 1.3 -2 1.2 -2 -1.4z"/>
  <path d="M252.1 384.3 c6.8 -8.7 20.4 -24.3 22.7 -25.9 5.7 -4.3 14.2 -5.3 14.2 -1.8 0 1 -1.2 1.4 -4 1.4 -2.2 0 -4 0.5 -4 1 0 0.6 -0.9 1 -2 1 -1.1 0 -2 0.6 -2 1.3 0 2 -4.4 5.7 -6.8 5.7 -1.6 0 -2.1 0.7 -2.4 3.3 -0.2 2.4 -0.8 3.3 -2.5 3.5 -1.5 0.2 -2.3 1.1 -2.5 3 -0.2 1.9 -1 2.8 -2.5 3 -1.5 0.2 -2.3 1.1 -2.5 3 -0.3 2.3 -0.9 2.8 -3.7 3 -3.2 0.3 -3.4 0.2 -2 -1.5z"/>
  <path d="M360.7 382.2 c-2.3 -2.6 -2.2 -5.2 0.3 -5.2 1.6 0 2 0.7 2 3.5 0 4 -0.1 4.1 -2.3 1.7z"/>
  <path d="M367.2 378.5 c-0.7 -1.4 -1.2 -3.5 -1.2 -4.5 0 -1.1 -0.7 -2 -1.5 -2 -0.8 0 -1.5 -0.7 -1.5 -1.5 0 -0.8 -0.4 -1.5 -1 -1.5 -0.5 0 -1 0.9 -1 2 0 2.7 -0.6 2.6 -4.8 -1.6 l-3.7 -3.6 4.3 0.4 c2.3 0.2 4.2 0 4.2 -0.4 0 -0.5 -0.7 -0.8 -1.5 -0.8 -0.9 0 -1.5 -0.9 -1.5 -2.4 0 -1.8 -0.6 -2.5 -2.2 -2.8 -1.7 -0.2 -2.4 -1.1 -2.6 -3 -0.3 -2.4 -0.8 -2.8 -3.3 -2.8 -1.6 0 -2.9 -0.4 -2.9 -0.9 0 -0.5 -0.9 -1.1 -2 -1.4 -1.4 -0.3 -2 -1.4 -2 -3.1 0 -2.3 -0.4 -2.6 -3.5 -2.6 -2.8 0 -3.5 -0.4 -3.5 -2 0 -1.1 -0.4 -2 -1 -2 -0.5 0 -1 -2 -1 -4.3 0 -5 2.5 -8.7 5.9 -8.7 1.4 0 2.1 -0.6 2.1 -2 0 -1.1 0.7 -2.3 1.6 -2.7 1.3 -0.5 1.4 -1.8 0.8 -8.4 -0.6 -6.8 -0.4 -7.9 0.9 -7.9 1 0 1.8 1.2 2.1 3.3 1.9 12.7 1.4 15 -4.4 19.3 -8.1 6 -7.3 8.9 4.7 17.7 8.8 6.5 15.7 14.4 21.8 25 2.2 3.8 2.5 5 1.5 6.2 -1.7 2.1 -2.5 1.9 -3.8 -1z"/>
  <path d="M124.9 364.3 l-3.4 -3.8 3.8 3.4 c3.4 3.3 4.2 4.1 3.4 4.1 -0.2 0 -1.9 -1.7 -3.8 -3.7z"/>
  <path d="M321 365 c0 -1.9 0.7 -3.4 2 -4.2 1.1 -0.7 2 -1.8 2 -2.5 0 -0.8 1.3 -1.3 3 -1.3 l3 0 -2.6 4 c-1.4 2.1 -3.7 4.6 -5 5.5 -2.4 1.5 -2.4 1.5 -2.4 -1.5z"/>
  <path d="M1052.2 365 c0 -1.9 0.2 -2.7 0.5 -1.7 0.2 0.9 0.2 2.5 0 3.5 -0.3 0.9 -0.5 0.1 -0.5 -1.8z"/>
  <path d="M345 361.4 c-3.6 -2.5 -7.5 -4.7 -8.7 -5.1 -3.7 -0.9 -2.8 -3.3 1.2 -3.3 2.4 0 3.5 0.5 3.5 1.5 0 0.8 0.9 1.5 1.9 1.5 3 0 5.1 1.1 5.1 2.6 0 0.8 0.9 1.4 2 1.4 1.6 0 2 0.7 2 3 0 1.7 -0.1 3 -0.2 2.9 -0.2 0 -3.2 -2.1 -6.8 -4.5z"/>
  <path d="M294.8 347.7 c1.7 -2.3 3.7 -5.9 4.5 -8 2 -4.7 3.7 -4.8 3.7 -0.2 0 2.4 -0.5 3.5 -1.5 3.5 -1 0 -1.5 1 -1.5 3 0 1.7 -0.4 3 -1 3 -0.5 0 -1 0.7 -1 1.5 0 1 -1 1.5 -3 1.5 l-3.1 0 2.9 -4.3z"/>
  <path d="M303 320.3 c0 -4.3 1.1 -7.3 2.6 -7.3 1 0 1.4 1.4 1.4 5 0 4.3 -0.3 5 -2 5 -1.5 0 -2 -0.7 -2 -2.7z"/>
  <path d="M315.2 312.7 c-1.1 -1.3 -6.2 -26.4 -6.2 -30.4 0 -2.7 1.6 -3 2.8 -0.5 0.5 0.9 1.9 7.1 3.2 13.7 1.5 7.8 2.9 12.7 4.1 13.9 1.7 1.9 1.9 1.9 3.8 0.2 1 -1 2.2 -3 2.6 -4.4 1.3 -5.4 7.5 -8.8 7.5 -4.2 0 1.1 -0.6 2 -1.3 2 -0.8 0 -2 1.9 -2.6 4.3 -0.7 2.3 -1.8 4.8 -2.3 5.5 -1.4 1.6 -10.2 1.6 -11.6 -0.1z"/>
  <path d="M304 306.3 c0 -4.3 1.1 -7.3 2.6 -7.3 1 0 1.4 1.4 1.4 5 0 4.3 -0.3 5 -2 5 -1.5 0 -2 -0.7 -2 -2.7z"/>
  <path d="M304 296.6 c0 -0.5 -2.8 -15.7 -4.1 -22.4 l-1 -5.2 -4 0.6 c-3.5 0.6 -3.9 0.4 -3.9 -1.5 0 -2.3 2.6 -2.7 8.7 -1.5 2.8 0.6 2.9 0.7 5.1 13.2 2.6 15 2.7 17.2 0.7 17.2 -0.8 0 -1.5 -0.2 -1.5 -0.4z"/>
  <path d="M305 274.4 c0 -4.4 1.8 -4.2 3.7 0.4 1.3 3.1 1.2 3.2 -1.2 3.2 -2.2 0 -2.5 -0.4 -2.5 -3.6z"/>
  <path d="M283.1 263.8 c-1.7 -1.7 -3.1 -3.7 -3.1 -4.3 0 -1.7 4.5 -3.8 7.9 -3.7 3.7 0.1 11.1 3.3 13 5.5 1.2 1.5 1 1.7 -2.3 1.7 -2 0 -3.6 -0.4 -3.6 -1 0 -0.5 -0.9 -1 -1.9 -1 -1.1 0 -2.1 -0.5 -2.3 -1.2 -0.3 -0.9 -1.3 -0.9 -3.9 -0.1 -1.9 0.6 -2.6 1.1 -1.6 1.2 1.2 0.1 1.7 0.9 1.7 3.1 0 1.7 -0.2 3 -0.4 3 -0.2 0 -1.8 -1.4 -3.5 -3.2z"/>
  <path d="M455.3 255.3 c0.9 -0.2 2.5 -0.2 3.5 0 0.9 0.3 0.1 0.5 -1.8 0.5 -1.9 0 -2.7 -0.2 -1.7 -0.5z"/>
 </g>
 <g fill="#939598">
  <path d="M593.3 530.3 c5.4 -0.2 13.9 -0.2 19 0 5.1 0.1 0.7 0.3 -9.8 0.3 -10.4 0 -14.6 -0.2 -9.2 -0.3z"/>
  <path d="M472.8 529.3 c1.2 -0.2 3 -0.2 4 0 0.9 0.3 -0.1 0.5 -2.3 0.4 -2.2 0 -3 -0.2 -1.7 -0.4z"/>
  <path d="M483.8 529.3 c2.8 -0.2 7.6 -0.2 10.5 0 2.8 0.2 0.5 0.3 -5.3 0.3 -5.8 0 -8.1 -0.1 -5.2 -0.3z"/>
  <path d="M507.8 529.3 c1.7 -0.2 4.7 -0.2 6.5 0 1.7 0.2 0.3 0.4 -3.3 0.4 -3.6 0 -5 -0.2 -3.2 -0.4z"/>
  <path d="M357.8 528.3 c1.7 -0.2 4.7 -0.2 6.5 0 1.7 0.2 0.3 0.4 -3.3 0.4 -3.6 0 -5 -0.2 -3.2 -0.4z"/>
  <path d="M369.3 528.3 c0.9 -0.2 2.5 -0.2 3.5 0 0.9 0.3 0.1 0.5 -1.8 0.5 -1.9 0 -2.7 -0.2 -1.7 -0.5z"/>
  <path d="M376.8 528.3 c1.2 -0.2 3 -0.2 4 0 0.9 0.3 -0.1 0.5 -2.3 0.4 -2.2 0 -3 -0.2 -1.7 -0.4z"/>
  <path d="M390.8 528.3 c1.2 -0.2 3 -0.2 4 0 0.9 0.3 -0.1 0.5 -2.3 0.4 -2.2 0 -3 -0.2 -1.7 -0.4z"/>
  <path d="M207.8 527.3 c3.4 -0.2 9 -0.2 12.5 0 3.4 0.2 0.6 0.3 -6.3 0.3 -6.9 0 -9.7 -0.1 -6.2 -0.3z"/>
  <path d="M234.3 527.3 c1.5 -0.2 3.9 -0.2 5.5 0 1.5 0.2 0.2 0.4 -2.8 0.4 -3 0 -4.3 -0.2 -2.7 -0.4z"/>
  <path d="M246.8 527.3 c2.3 -0.2 5.9 -0.2 8 0 2 0.2 0.1 0.4 -4.3 0.4 -4.4 0 -6.1 -0.2 -3.7 -0.4z"/>
  <path d="M55.8 526.3 c2.3 -0.2 5.9 -0.2 8 0 2 0.2 0.1 0.4 -4.3 0.4 -4.4 0 -6.1 -0.2 -3.7 -0.4z"/>
  <path d="M80.8 526.3 c3.9 -0.2 10.5 -0.2 14.5 0 3.9 0.1 0.7 0.3 -7.3 0.3 -8 0 -11.2 -0.2 -7.2 -0.3z"/>
  <path d="M57.3 519.3 c2 -0.2 5.4 -0.2 7.5 0 2 0.2 0.3 0.4 -3.8 0.4 -4.1 0 -5.8 -0.2 -3.7 -0.4z"/>
  <path d="M146.3 518.3 c4.2 -0.2 11.2 -0.2 15.5 0 4.2 0.1 0.7 0.3 -7.8 0.3 -8.5 0 -12 -0.2 -7.7 -0.3z"/>
  <path d="M255.3 517.3 c3.7 -0.2 9.6 -0.2 13 0 3.4 0.2 0.4 0.3 -6.8 0.3 -7.1 0 -9.9 -0.1 -6.2 -0.3z"/>
  <path d="M283.8 517.3 c1.2 -0.2 3.2 -0.2 4.5 0 1.2 0.2 0.2 0.4 -2.3 0.4 -2.5 0 -3.5 -0.2 -2.2 -0.4z"/>
  <path d="M385.3 516.3 c3.2 -0.2 8.1 -0.2 11 0 2.9 0.2 0.3 0.3 -5.8 0.3 -6 0 -8.4 -0.1 -5.2 -0.3z"/>
  <path d="M405.8 516.3 c2.3 -0.2 6.1 -0.2 8.5 0 2.3 0.2 0.4 0.4 -4.3 0.4 -4.7 0 -6.6 -0.2 -4.2 -0.4z"/>
  <path d="M535.8 515.3 c5 -0.2 13.4 -0.2 18.5 0 5 0.1 0.9 0.3 -9.3 0.3 -10.2 0 -14.3 -0.2 -9.2 -0.3z"/>
  <path d="M572.3 515.3 c0.9 -0.2 2.5 -0.2 3.5 0 0.9 0.3 0.1 0.5 -1.8 0.5 -1.9 0 -2.7 -0.2 -1.7 -0.5z"/>
  <path d="M656.8 514.3 c1.2 -0.2 3 -0.2 4 0 0.9 0.3 -0.1 0.5 -2.3 0.4 -2.2 0 -3 -0.2 -1.7 -0.4z"/>
  <path d="M48 485.8 c4.1 -4.5 5 -5.3 5 -4.5 0 0.2 -2.1 2.3 -4.7 4.7 l-4.8 4.5 4.5 -4.7z"/>
  <path d="M108.8 477.3 c1.2 -0.2 3.2 -0.2 4.5 0 1.2 0.2 0.2 0.4 -2.3 0.4 -2.5 0 -3.5 -0.2 -2.2 -0.4z"/>
  <path d="M944.4 450.5 c0 -11.5 0.2 -16.1 0.3 -10.2 0.2 5.9 0.2 15.4 0 21 -0.1 5.6 -0.3 0.8 -0.3 -10.8z"/>
  <path d="M965.4 444 c0 -9.6 0.2 -13.6 0.3 -8.7 0.2 4.8 0.2 12.6 0 17.5 -0.1 4.8 -0.3 0.8 -0.3 -8.8z"/>
  <path d="M72.3 438 c0 -2.5 0.2 -3.5 0.4 -2.2 0.2 1.2 0.2 3.2 0 4.5 -0.2 1.2 -0.4 0.2 -0.4 -2.3z"/>
  <path d="M191.3 434.5 c-0.3 -1 0.4 -4.9 1.6 -8.9 3.8 -11.9 3 -11.1 11.6 -12.4 9.6 -1.5 14.6 -3.7 20.9 -9.1 2.6 -2.3 7.8 -5.7 11.5 -7.6 6.8 -3.4 12.9 -9.1 23.1 -21.5 7.9 -9.6 15.1 -17 18.2 -18.6 1.5 -0.8 4.5 -1.4 6.6 -1.4 3.3 0 4.5 -0.6 7.5 -4 7.5 -8.2 10.2 -16.7 11.6 -35.8 1.1 -15 1.3 -13.1 -3.8 -41.7 -0.7 -4 -0.7 -4 -5.1 -4 -5.3 -0.1 -7.3 -1.1 -12 -6 l-3.5 -3.6 2.4 -2 c4.2 -3.4 12.4 -1.9 18.8 3.5 4.9 4.1 11.1 19.4 14.2 34.7 1.9 9.5 3.1 13.5 4.4 14.3 2.5 1.6 4.7 -0.2 6.6 -5.4 1.1 -3.1 2.4 -4.7 4.2 -5.4 3.8 -1.3 9.6 0.1 13.1 3.3 3.3 2.9 4.6 7.9 4.7 17.8 0.1 4.9 -0.1 5.3 -4.6 9.3 -2.7 2.3 -5.2 4.8 -5.6 5.7 -1.6 2.7 1.3 6.7 8.5 11.8 4 2.8 8.3 6.1 9.6 7.5 4 4 11.2 14.1 13.8 19.1 l2.3 4.6 -2.2 2.1 c-1.2 1.1 -3.4 2.3 -4.8 2.7 -3.5 0.9 -5.9 -2.4 -5.9 -8.1 0 -4 -0.3 -4.3 -7.2 -9.5 -9.2 -6.9 -14.4 -9.9 -17.2 -9.9 -1.5 0 -4.1 2.1 -7.9 6.4 -4.3 4.8 -7.5 7.3 -13.9 10.6 -5.6 2.9 -10.7 6.6 -15.8 11.5 -8.2 7.8 -12.5 9.9 -34 16.7 -6.3 1.9 -11.7 4.3 -13.5 5.9 -1.6 1.4 -4.1 3 -5.5 3.3 -1.4 0.4 -4.5 1.7 -6.9 2.8 -2.4 1 -9.3 3.2 -15.3 4.8 -14.7 3.9 -18.5 5.9 -22.8 12.3 -3.7 5.4 -6.6 7 -7.7 4.2z"/>
  <path d="M116.2 379 c0 -1.9 0.2 -2.7 0.5 -1.7 0.2 0.9 0.2 2.5 0 3.5 -0.3 0.9 -0.5 0.1 -0.5 -1.8z"/>
 </g>
</svg>